<svg width="300" height="28" viewBox="0 0 175 28" fill="none" xmlns="http://www.w3.org/2000/svg">
<g filter="url(#filter0_d_2_2)">
<path d="M18.6477 1.9375V19H15.4133L8.15938 7.16406V19H4.93672V1.9375H8.15938L15.4367 13.7852V1.9375H18.6477ZM33.1133 13.3867H36.3359C36.25 14.5273 35.9336 15.5391 35.3867 16.4219C34.8398 17.2969 34.0781 17.9844 33.1016 18.4844C32.125 18.9844 30.9414 19.2344 29.5508 19.2344C28.4805 19.2344 27.5156 19.0469 26.6563 18.6719C25.8047 18.2891 25.0742 17.7461 24.4648 17.043C23.8633 16.332 23.4023 15.4805 23.082 14.4883C22.7617 13.4883 22.6016 12.3672 22.6016 11.125V9.82422C22.6016 8.58203 22.7656 7.46094 23.0938 6.46094C23.4219 5.46094 23.8906 4.60938 24.5 3.90625C25.1172 3.19531 25.8555 2.64844 26.7148 2.26562C27.582 1.88281 28.5508 1.69141 29.6211 1.69141C31.0117 1.69141 32.1875 1.94922 33.1484 2.46484C34.1094 2.97266 34.8555 3.67188 35.3867 4.5625C35.918 5.45312 36.2383 6.47656 36.3477 7.63281H33.125C33.0625 6.91406 32.9063 6.30469 32.6563 5.80469C32.4141 5.30469 32.0469 4.92578 31.5547 4.66797C31.0703 4.40234 30.4258 4.26953 29.6211 4.26953C28.9961 4.26953 28.4453 4.38672 27.9688 4.62109C27.5 4.85547 27.1094 5.20703 26.7969 5.67578C26.4844 6.13672 26.25 6.71484 26.0938 7.41016C25.9375 8.09766 25.8594 8.89453 25.8594 9.80078V11.125C25.8594 11.9922 25.9297 12.7695 26.0703 13.457C26.2109 14.1445 26.4297 14.7266 26.7266 15.2031C27.0234 15.6797 27.4063 16.043 27.875 16.293C28.3438 16.543 28.9023 16.668 29.5508 16.668C30.3398 16.668 30.9805 16.543 31.4727 16.293C31.9727 16.043 32.3516 15.6758 32.6094 15.1914C32.875 14.707 33.043 14.1055 33.1133 13.3867ZM41.4383 1.9375H44.2273L48.8914 14.7812L53.5438 1.9375H56.3445L50.0047 19H47.7664L41.4383 1.9375ZM40.032 1.9375H42.7625L43.2547 13.7383V19H40.032V1.9375ZM55.0086 1.9375H57.7508V19H54.5281V13.7383L55.0086 1.9375Z" fill="#E0B7B3"/>
<path d="M75.9711 12.7773H71.5766V10.2461H75.9711C76.6898 10.2461 77.2719 10.1289 77.7172 9.89453C78.1703 9.65234 78.5023 9.32422 78.7133 8.91016C78.9242 8.48828 79.0297 8.00781 79.0297 7.46875C79.0297 6.94531 78.9242 6.45703 78.7133 6.00391C78.5023 5.55078 78.1703 5.18359 77.7172 4.90234C77.2719 4.62109 76.6898 4.48047 75.9711 4.48047H72.6313V19H69.4086V1.9375H75.9711C77.2992 1.9375 78.432 2.17578 79.3695 2.65234C80.3148 3.12109 81.0336 3.77344 81.5258 4.60938C82.0258 5.4375 82.2758 6.38281 82.2758 7.44531C82.2758 8.54688 82.0258 9.49609 81.5258 10.293C81.0336 11.0898 80.3148 11.7031 79.3695 12.1328C78.432 12.5625 77.2992 12.7773 75.9711 12.7773ZM85.0578 12.7891V12.543C85.0578 11.6133 85.1906 10.7578 85.4563 9.97656C85.7219 9.1875 86.1086 8.50391 86.6164 7.92578C87.1242 7.34766 87.7453 6.89844 88.4797 6.57812C89.2141 6.25 90.05 6.08594 90.9875 6.08594C91.9406 6.08594 92.7844 6.25 93.5188 6.57812C94.2609 6.89844 94.8859 7.34766 95.3938 7.92578C95.9016 8.50391 96.2883 9.1875 96.5539 9.97656C96.8195 10.7578 96.9523 11.6133 96.9523 12.543V12.7891C96.9523 13.7109 96.8195 14.5664 96.5539 15.3555C96.2883 16.1367 95.9016 16.8203 95.3938 17.4062C94.8859 17.9844 94.2648 18.4336 93.5305 18.7539C92.7961 19.0742 91.9563 19.2344 91.0109 19.2344C90.0734 19.2344 89.2336 19.0742 88.4914 18.7539C87.7492 18.4336 87.1242 17.9844 86.6164 17.4062C86.1086 16.8203 85.7219 16.1367 85.4563 15.3555C85.1906 14.5664 85.0578 13.7109 85.0578 12.7891ZM88.1516 12.543V12.7891C88.1516 13.3438 88.2063 13.8633 88.3156 14.3477C88.425 14.832 88.593 15.2578 88.8195 15.625C89.0461 15.9922 89.3391 16.2812 89.6984 16.4922C90.0656 16.6953 90.5031 16.7969 91.0109 16.7969C91.5109 16.7969 91.9406 16.6953 92.3 16.4922C92.6594 16.2812 92.9523 15.9922 93.1789 15.625C93.4133 15.2578 93.5852 14.832 93.6945 14.3477C93.8039 13.8633 93.8586 13.3438 93.8586 12.7891V12.543C93.8586 11.9961 93.8039 11.4844 93.6945 11.0078C93.5852 10.5234 93.4133 10.0977 93.1789 9.73047C92.9523 9.35547 92.6555 9.0625 92.2883 8.85156C91.9289 8.63281 91.4953 8.52344 90.9875 8.52344C90.4875 8.52344 90.0578 8.63281 89.6984 8.85156C89.3391 9.0625 89.0461 9.35547 88.8195 9.73047C88.593 10.0977 88.425 10.5234 88.3156 11.0078C88.2063 11.4844 88.1516 11.9961 88.1516 12.543ZM103.496 8.91016V19H100.402V6.32031H103.332L103.496 8.91016ZM107.352 6.23828L107.305 9.12109C107.133 9.08984 106.938 9.06641 106.719 9.05078C106.508 9.03516 106.309 9.02734 106.121 9.02734C105.645 9.02734 105.227 9.09375 104.867 9.22656C104.508 9.35156 104.207 9.53516 103.965 9.77734C103.73 10.0195 103.551 10.3164 103.426 10.668C103.301 11.0117 103.23 11.4023 103.215 11.8398L102.547 11.7578C102.547 10.9531 102.629 10.207 102.793 9.51953C102.957 8.83203 103.195 8.23047 103.508 7.71484C103.82 7.19922 104.211 6.80078 104.68 6.51953C105.156 6.23047 105.703 6.08594 106.32 6.08594C106.492 6.08594 106.676 6.10156 106.871 6.13281C107.074 6.15625 107.234 6.19141 107.352 6.23828ZM116.837 6.32031V8.54688H109.571V6.32031H116.837ZM111.516 3.20312H114.622V15.3438C114.622 15.7188 114.673 16.0078 114.774 16.2109C114.876 16.4141 115.028 16.5508 115.231 16.6211C115.434 16.6914 115.677 16.7266 115.958 16.7266C116.161 16.7266 116.348 16.7148 116.52 16.6914C116.692 16.668 116.837 16.6445 116.954 16.6211L116.966 18.9414C116.708 19.0273 116.415 19.0977 116.087 19.1523C115.766 19.207 115.403 19.2344 114.997 19.2344C114.302 19.2344 113.692 19.1172 113.169 18.8828C112.645 18.6406 112.239 18.2539 111.95 17.7227C111.661 17.1836 111.516 16.4727 111.516 15.5898V3.20312ZM124.154 19H121.037V5.14844C121.037 4.19531 121.22 3.39453 121.588 2.74609C121.955 2.08984 122.478 1.59375 123.158 1.25781C123.838 0.921875 124.638 0.753906 125.56 0.753906C125.865 0.753906 126.154 0.773438 126.427 0.8125C126.709 0.851562 126.986 0.90625 127.259 0.976562L127.201 3.33203C127.052 3.29297 126.888 3.26562 126.709 3.25C126.537 3.23438 126.345 3.22656 126.134 3.22656C125.713 3.22656 125.353 3.30078 125.056 3.44922C124.759 3.59766 124.533 3.81641 124.377 4.10547C124.228 4.38672 124.154 4.73438 124.154 5.14844V19ZM126.72 6.32031V8.54688H119.127V6.32031H126.72ZM129.28 12.7891V12.543C129.28 11.6133 129.413 10.7578 129.678 9.97656C129.944 9.1875 130.33 8.50391 130.838 7.92578C131.346 7.34766 131.967 6.89844 132.702 6.57812C133.436 6.25 134.272 6.08594 135.209 6.08594C136.163 6.08594 137.006 6.25 137.741 6.57812C138.483 6.89844 139.108 7.34766 139.616 7.92578C140.123 8.50391 140.51 9.1875 140.776 9.97656C141.041 10.7578 141.174 11.6133 141.174 12.543V12.7891C141.174 13.7109 141.041 14.5664 140.776 15.3555C140.51 16.1367 140.123 16.8203 139.616 17.4062C139.108 17.9844 138.487 18.4336 137.752 18.7539C137.018 19.0742 136.178 19.2344 135.233 19.2344C134.295 19.2344 133.455 19.0742 132.713 18.7539C131.971 18.4336 131.346 17.9844 130.838 17.4062C130.33 16.8203 129.944 16.1367 129.678 15.3555C129.413 14.5664 129.28 13.7109 129.28 12.7891ZM132.373 12.543V12.7891C132.373 13.3438 132.428 13.8633 132.538 14.3477C132.647 14.832 132.815 15.2578 133.041 15.625C133.268 15.9922 133.561 16.2812 133.92 16.4922C134.288 16.6953 134.725 16.7969 135.233 16.7969C135.733 16.7969 136.163 16.6953 136.522 16.4922C136.881 16.2812 137.174 15.9922 137.401 15.625C137.635 15.2578 137.807 14.832 137.916 14.3477C138.026 13.8633 138.08 13.3438 138.08 12.7891V12.543C138.08 11.9961 138.026 11.4844 137.916 11.0078C137.807 10.5234 137.635 10.0977 137.401 9.73047C137.174 9.35547 136.877 9.0625 136.51 8.85156C136.151 8.63281 135.717 8.52344 135.209 8.52344C134.709 8.52344 134.28 8.63281 133.92 8.85156C133.561 9.0625 133.268 9.35547 133.041 9.73047C132.815 10.0977 132.647 10.5234 132.538 11.0078C132.428 11.4844 132.373 11.9961 132.373 12.543ZM147.905 1V19H144.8V1H147.905ZM155.34 6.32031V19H152.234V6.32031H155.34ZM152.023 3.00391C152.023 2.54297 152.18 2.16016 152.492 1.85547C152.812 1.55078 153.242 1.39844 153.781 1.39844C154.32 1.39844 154.746 1.55078 155.059 1.85547C155.379 2.16016 155.539 2.54297 155.539 3.00391C155.539 3.45703 155.379 3.83594 155.059 4.14062C154.746 4.44531 154.32 4.59766 153.781 4.59766C153.242 4.59766 152.812 4.44531 152.492 4.14062C152.18 3.83594 152.023 3.45703 152.023 3.00391ZM158.942 12.7891V12.543C158.942 11.6133 159.075 10.7578 159.341 9.97656C159.606 9.1875 159.993 8.50391 160.501 7.92578C161.009 7.34766 161.63 6.89844 162.364 6.57812C163.098 6.25 163.934 6.08594 164.872 6.08594C165.825 6.08594 166.669 6.25 167.403 6.57812C168.145 6.89844 168.77 7.34766 169.278 7.92578C169.786 8.50391 170.173 9.1875 170.438 9.97656C170.704 10.7578 170.837 11.6133 170.837 12.543V12.7891C170.837 13.7109 170.704 14.5664 170.438 15.3555C170.173 16.1367 169.786 16.8203 169.278 17.4062C168.77 17.9844 168.149 18.4336 167.415 18.7539C166.68 19.0742 165.841 19.2344 164.895 19.2344C163.958 19.2344 163.118 19.0742 162.376 18.7539C161.634 18.4336 161.009 17.9844 160.501 17.4062C159.993 16.8203 159.606 16.1367 159.341 15.3555C159.075 14.5664 158.942 13.7109 158.942 12.7891ZM162.036 12.543V12.7891C162.036 13.3438 162.091 13.8633 162.2 14.3477C162.309 14.832 162.477 15.2578 162.704 15.625C162.93 15.9922 163.223 16.2812 163.583 16.4922C163.95 16.6953 164.387 16.7969 164.895 16.7969C165.395 16.7969 165.825 16.6953 166.184 16.4922C166.544 16.2812 166.837 15.9922 167.063 15.625C167.298 15.2578 167.47 14.832 167.579 14.3477C167.688 13.8633 167.743 13.3438 167.743 12.7891V12.543C167.743 11.9961 167.688 11.4844 167.579 11.0078C167.47 10.5234 167.298 10.0977 167.063 9.73047C166.837 9.35547 166.54 9.0625 166.173 8.85156C165.813 8.63281 165.38 8.52344 164.872 8.52344C164.372 8.52344 163.942 8.63281 163.583 8.85156C163.223 9.0625 162.93 9.35547 162.704 9.73047C162.477 10.0977 162.309 10.5234 162.2 11.0078C162.091 11.4844 162.036 11.9961 162.036 12.543Z" fill="black"/>
</g>
<defs>
<filter id="filter0_d_2_2" x="0.936707" y="0.753906" width="173.9" height="26.4805" filterUnits="userSpaceOnUse" color-interpolation-filters="sRGB">
<feFlood flood-opacity="0" result="BackgroundImageFix"/>
<feColorMatrix in="SourceAlpha" type="matrix" values="0 0 0 0 0 0 0 0 0 0 0 0 0 0 0 0 0 0 127 0" result="hardAlpha"/>
<feOffset dy="4"/>
<feGaussianBlur stdDeviation="2"/>
<feComposite in2="hardAlpha" operator="out"/>
<feColorMatrix type="matrix" values="0 0 0 0 0 0 0 0 0 0 0 0 0 0 0 0 0 0 0.25 0"/>
<feBlend mode="normal" in2="BackgroundImageFix" result="effect1_dropShadow_2_2"/>
<feBlend mode="normal" in="SourceGraphic" in2="effect1_dropShadow_2_2" result="shape"/>
</filter>
</defs>
</svg>
